<svg width="405" height="105" viewBox="0 0 405 105" fill="none" xmlns="http://www.w3.org/2000/svg">
<g clip-path="url(#clip0_10_58)">
<path d="M85.44 25.58C81.73 25.58 78.72 27.44 74.49 32.53C74.02 29.55 73.07 27.57 71.39 25.89L70.81 25.31L66.49 27.87L67.21 28.81C69.25 31.48 69.78 34.01 69.78 41.15V70.29H74.96V38.54C79.46 32.93 81.96 30.9 84.76 30.56C86.72 30.38 88.27 30.76 91.13 32.1L92.3 32.65L93.49 27.72L92.65 27.38C89.36 26.02 87.85 25.57 85.43 25.57L85.44 25.58Z" fill="white"/>
<path d="M131.01 62.77C126.96 65.35 124.07 66.26 119.95 66.26C110.37 66.26 103.42 58.53 103.42 47.89C103.42 37.86 110.13 30.58 119.37 30.58C123.08 30.58 126.76 31.78 130.31 34.15L131.2 34.74L133.97 30.5L133.15 29.91C128.96 26.91 124.68 25.58 119.28 25.58C107.63 25.58 98.14 35.59 98.14 47.89C98.14 61.87 106.9 71.26 119.95 71.26C125.16 71.26 129.35 69.92 133.53 66.93L134.3 66.38L131.95 62.17L131.01 62.77Z" fill="white"/>
<path d="M50.26 7.21002C48.06 7.21002 46.51 8.75002 46.51 10.96C46.51 13.17 48.05 14.71 50.26 14.71C52.47 14.71 54 13.17 54 10.96C54 8.75002 52.46 7.21002 50.26 7.21002Z" fill="white"/>
<path d="M32.87 62.77C28.83 65.35 25.93 66.26 21.81 66.26C12.23 66.26 5.28 58.53 5.28 47.89C5.28 37.86 11.99 30.58 21.23 30.58C24.94 30.58 28.62 31.78 32.17 34.15L33.06 34.74L35.83 30.5L35.01 29.91C30.82 26.91 26.54 25.58 21.14 25.58C9.48 25.58 0 35.59 0 47.89C0 61.87 8.76 71.26 21.81 71.26C27.01 71.26 31.2 69.92 35.39 66.93L36.16 66.38L33.81 62.17L32.87 62.77Z" fill="white"/>
<path d="M52.66 26.54H47.48V70.3H52.66V26.54Z" fill="white"/>
<path d="M383.58 25.68C371.22 25.68 362.25 35.31 362.25 48.57C362.25 61.83 371.18 71.27 383.96 71.27C396.74 71.27 405 61.68 405 48.48C405 35.28 396.39 25.69 383.58 25.69V25.68ZM399.72 48.37C399.72 59.63 393.58 66.36 383.29 66.36C374.6 66.36 367.53 58.46 367.53 48.76C367.53 37.89 373.79 30.58 383.1 30.58C393.04 30.58 399.72 37.73 399.72 48.37Z" fill="white"/>
<path d="M280.07 25.58C274.89 25.58 270.71 27.41 266.4 31.64C265.9 29.34 264.88 27.34 263.42 25.89L262.84 25.31L258.52 27.87L259.24 28.81C261.28 31.47 261.81 34.01 261.81 41.15V70.29H266.99V36.95C271.36 32.3 274.92 30.47 279.58 30.47C282.89 30.47 285.7 31.44 287.69 33.25C289.85 35.32 290.73 38.17 290.73 43.07V70.29H295.91V41.63C295.91 31.87 289.69 25.57 280.06 25.57L280.07 25.58Z" fill="white"/>
<path d="M181.74 66.46C180.51 66.57 179.11 66.3 178.8 65.16C178.48 64.2 178.47 63.79 178.47 59.72V26.54H173.29V60.97C168.45 65.14 165.66 66.36 161.09 66.36C158.01 66.36 154.97 65.29 153.17 63.57C151.26 61.75 150.52 59.43 150.52 55.29V26.53H145.33V55C145.33 60.83 146.29 63.89 149 66.71C151.89 69.6 156.12 71.25 160.6 71.25C165.5 71.25 168.99 69.94 173.71 66.18C174.42 69.34 176.71 71.06 180.29 71.06C181.74 71.06 182.4 70.95 183.54 70.64L184.2 70.46L184.96 65.74L183.36 66.2C182.72 66.38 182.15 66.45 181.73 66.45L181.74 66.46Z" fill="white"/>
<path d="M350.61 66.46C349.02 66.61 347.89 66.12 347.6 65.24C347.34 64.21 347.34 63.7 347.34 59.72V0H342.16V28.04C338.22 26.24 335.11 25.58 330.92 25.58C319.17 25.58 310.2 34.9 309.59 47.74C309.23 54.55 311.41 60.98 315.58 65.39C319.17 69.18 324 71.26 329.18 71.26C334.8 71.26 338.32 70.2 342.75 66.99C343.57 69.52 345.92 71.07 349.16 71.07C350.61 71.07 351.27 70.96 352.41 70.65L353.07 70.47L353.81 65.81L352.26 66.2C351.56 66.37 351.06 66.46 350.6 66.46H350.61ZM342.15 33.76V62.07C337.49 65.42 334.2 66.53 329.71 66.26C320.65 65.81 314.4 58.02 314.86 47.74C315.31 37.74 321.9 30.48 330.52 30.48C335.54 30.48 338.04 31.16 342.15 33.75V33.76Z" fill="white"/>
<path d="M201.25 0H196.07V70.3H201.25V0Z" fill="white"/>
<path d="M247.1 66.46C245.87 66.57 244.47 66.3 244.16 65.16C243.84 64.2 243.83 63.79 243.83 59.72V41.35C243.83 37.28 243.56 35.08 242.8 32.89C240.92 27.97 235.56 25.16 228.86 25.58C224.79 25.89 221.35 27.04 216.98 29.57L216.45 29.87V35.33L218.05 34.37C222.09 31.94 224.8 30.95 228.37 30.57C232.25 30.22 235.38 31.16 236.94 33.13C238.1 34.68 238.65 36.29 238.65 41.25V42.89C232.79 43.5 231.47 43.68 229.81 43.96C219.84 45.79 214.96 50.26 214.44 58C214.19 61.57 215.33 64.91 217.66 67.41C219.96 69.88 223.15 71.25 226.64 71.25C231.47 71.25 235.25 70 239.29 66.99C240.15 69.54 242.45 71.06 245.67 71.06C247.12 71.06 247.78 70.95 248.92 70.64L249.58 70.46L250.33 65.74L248.74 66.2C248.1 66.38 247.53 66.45 247.11 66.45L247.1 66.46ZM229.99 48.64C233 48.11 235.09 47.83 238.65 47.5V62.05C233.81 65.38 231.49 66.26 227.69 66.26C225.22 66.26 223.04 65.4 221.56 63.83C220.17 62.36 219.5 60.43 219.62 58.24C219.88 52.95 223.18 49.9 229.99 48.65V48.64Z" fill="white"/>
<path d="M27.44 88.86H29.31V96.99C29.31 97.85 29.11 98.62 28.7 99.29C28.29 99.96 27.72 100.48 26.99 100.86C26.25 101.24 25.39 101.43 24.4 101.43C23.41 101.43 22.56 101.24 21.82 100.86C21.08 100.48 20.51 99.96 20.11 99.29C19.7 98.62 19.5 97.86 19.5 96.99V88.86H21.36V96.84C21.36 97.4 21.48 97.9 21.73 98.33C21.98 98.76 22.33 99.1 22.78 99.35C23.23 99.6 23.77 99.72 24.4 99.72C25.03 99.72 25.57 99.6 26.02 99.35C26.48 99.1 26.83 98.76 27.07 98.33C27.31 97.9 27.43 97.4 27.43 96.84V88.86H27.44Z" fill="white"/>
<path d="M32.36 88.86H34.62L38.55 98.46H38.69L42.62 88.86H44.88V101.22H43.11V92.28H43L39.36 101.2H37.89L34.25 92.27H34.14V101.22H32.37V88.86H32.36Z" fill="white"/>
<path d="M56.06 101.22H58.04L53.6 88.86H51.45L47.01 101.22H48.99L50.12 97.95H54.94L56.07 101.22H56.06ZM50.65 96.38L52.47 91.11H52.57L54.39 96.38H50.65Z" fill="white"/>
<path d="M73.19 90.82C72.88 90.21 72.4 89.74 71.77 89.39C71.14 89.04 70.34 88.87 69.38 88.87H64.98V101.23H66.84V96.89H69.37C70.33 96.89 71.12 96.71 71.75 96.36C72.38 96.01 72.86 95.53 73.17 94.92C73.49 94.31 73.64 93.63 73.64 92.87C73.64 92.11 73.48 91.43 73.17 90.83L73.19 90.82ZM71.52 94.11C71.34 94.48 71.07 94.76 70.69 94.98C70.31 95.19 69.82 95.3 69.21 95.3H66.85V90.47H69.19C69.81 90.47 70.31 90.57 70.69 90.78C71.07 90.98 71.35 91.27 71.52 91.63C71.7 91.99 71.79 92.41 71.79 92.87C71.79 93.33 71.7 93.75 71.52 94.12V94.11Z" fill="white"/>
<path d="M84.11 88.86H85.98V96.99C85.98 97.85 85.78 98.62 85.37 99.29C84.96 99.96 84.39 100.48 83.66 100.86C82.92 101.24 82.06 101.43 81.07 101.43C80.08 101.43 79.23 101.24 78.49 100.86C77.75 100.48 77.18 99.96 76.78 99.29C76.37 98.62 76.17 97.86 76.17 96.99V88.86H78.03V96.84C78.03 97.4 78.15 97.9 78.4 98.33C78.65 98.76 79 99.1 79.45 99.35C79.9 99.6 80.44 99.72 81.07 99.72C81.7 99.72 82.24 99.6 82.69 99.35C83.15 99.1 83.5 98.76 83.74 98.33C83.98 97.9 84.1 97.4 84.1 96.84V88.86H84.11Z" fill="white"/>
<path d="M89.03 101.22V88.86H93.55C94.43 88.86 95.15 89 95.73 89.29C96.3 89.58 96.73 89.97 97.02 90.45C97.31 90.94 97.45 91.49 97.45 92.1C97.45 92.62 97.36 93.05 97.17 93.4C96.98 93.75 96.73 94.03 96.41 94.24C96.09 94.45 95.75 94.61 95.37 94.7V94.82C95.78 94.84 96.18 94.97 96.57 95.22C96.96 95.46 97.29 95.81 97.54 96.25C97.8 96.7 97.93 97.24 97.93 97.88C97.93 98.52 97.78 99.08 97.49 99.58C97.2 100.08 96.74 100.48 96.12 100.77C95.51 101.06 94.72 101.21 93.76 101.21H89.03V101.22ZM90.9 94.21H93.4C93.82 94.21 94.19 94.13 94.53 93.97C94.87 93.81 95.13 93.58 95.33 93.29C95.53 93 95.63 92.65 95.63 92.26C95.63 91.75 95.45 91.32 95.09 90.97C94.73 90.62 94.18 90.45 93.44 90.45H90.9V94.21ZM90.9 99.62H93.59C94.48 99.62 95.12 99.45 95.51 99.1C95.9 98.75 96.09 98.32 96.09 97.8C96.09 97.41 95.99 97.05 95.79 96.73C95.59 96.41 95.31 96.14 94.95 95.95C94.59 95.76 94.16 95.66 93.66 95.66H90.91V99.62H90.9Z" fill="white"/>
<path d="M100.48 101.22V88.86H102.34V99.61H107.93V101.21H100.47L100.48 101.22Z" fill="white"/>
<path d="M112.25 88.86V101.22H110.39V88.86H112.25Z" fill="white"/>
<path d="M125.56 92.88H123.68C123.61 92.48 123.47 92.12 123.28 91.82C123.08 91.51 122.84 91.25 122.56 91.04C122.27 90.83 121.96 90.67 121.6 90.56C121.25 90.45 120.88 90.4 120.48 90.4C119.77 90.4 119.13 90.58 118.57 90.94C118.01 91.3 117.57 91.82 117.24 92.51C116.92 93.2 116.75 94.05 116.75 95.04C116.75 96.03 116.91 96.89 117.24 97.59C117.56 98.28 118.01 98.8 118.57 99.16C119.13 99.52 119.77 99.69 120.47 99.69C120.86 99.69 121.23 99.64 121.58 99.53C121.93 99.42 122.25 99.27 122.53 99.06C122.82 98.85 123.06 98.59 123.26 98.29C123.46 97.99 123.6 97.64 123.67 97.24H125.55C125.45 97.85 125.26 98.41 124.97 98.92C124.68 99.43 124.32 99.87 123.87 100.23C123.42 100.59 122.91 100.88 122.34 101.08C121.77 101.28 121.14 101.38 120.46 101.38C119.39 101.38 118.44 101.13 117.6 100.62C116.76 100.11 116.11 99.38 115.63 98.43C115.15 97.48 114.91 96.35 114.91 95.03C114.91 93.71 115.15 92.58 115.63 91.63C116.11 90.68 116.77 89.96 117.61 89.45C118.45 88.94 119.4 88.69 120.46 88.69C121.11 88.69 121.73 88.78 122.29 88.97C122.86 89.16 123.37 89.43 123.82 89.79C124.27 90.15 124.65 90.59 124.95 91.1C125.25 91.62 125.45 92.21 125.55 92.87L125.56 92.88Z" fill="white"/>
<path d="M136.25 101.22H138.23L133.79 88.86H131.64L127.2 101.22H129.18L130.31 97.95H135.13L136.26 101.22H136.25ZM130.84 96.38L132.66 91.11H132.76L134.58 96.38H130.84Z" fill="white"/>
<path d="M148.3 98.28C148.1 98.58 147.86 98.84 147.57 99.05C147.28 99.26 146.97 99.42 146.61 99.52C146.26 99.63 145.89 99.68 145.5 99.68C144.8 99.68 144.16 99.5 143.6 99.15C143.04 98.8 142.59 98.27 142.27 97.58C141.95 96.89 141.78 96.04 141.78 95.03C141.78 94.02 141.94 93.19 142.27 92.5C142.59 91.81 143.04 91.28 143.6 90.93C144.16 90.57 144.8 90.39 145.51 90.39C145.9 90.39 146.28 90.44 146.63 90.55C146.98 90.66 147.3 90.82 147.59 91.03C147.88 91.24 148.12 91.5 148.31 91.81C148.51 92.12 148.64 92.47 148.71 92.87H150.59C150.49 92.21 150.28 91.62 149.99 91.1C149.69 90.58 149.32 90.15 148.86 89.79C148.41 89.43 147.89 89.16 147.33 88.97C146.76 88.78 146.15 88.69 145.5 88.69C144.43 88.69 143.48 88.94 142.65 89.45C141.81 89.96 141.16 90.69 140.67 91.63C140.19 92.58 139.95 93.71 139.95 95.03C139.95 96.35 140.19 97.48 140.67 98.43C141.15 99.38 141.81 100.11 142.64 100.62C143.3 101.02 144.04 101.26 144.84 101.34L144.62 102.42C145.06 102.46 145.38 102.54 145.59 102.65C145.79 102.76 145.89 102.95 145.89 103.22C145.89 103.49 145.75 103.68 145.5 103.8C145.24 103.92 144.9 103.98 144.48 103.98L144.52 104.99C145.41 104.99 146.09 104.82 146.57 104.48C147.04 104.14 147.28 103.7 147.27 103.16C147.27 102.71 147.14 102.37 146.88 102.14C146.62 101.91 146.31 101.77 145.96 101.72L146.04 101.34C146.52 101.3 146.97 101.23 147.39 101.08C147.96 100.88 148.48 100.59 148.92 100.23C149.36 99.87 149.74 99.42 150.02 98.92C150.31 98.41 150.5 97.85 150.6 97.25H148.72C148.64 97.64 148.51 97.99 148.31 98.29L148.3 98.28Z" fill="white"/>
<path d="M161.29 101.22H163.27L158.83 88.86H156.68L152.24 101.22H154.22L155.35 97.95H160.17L161.3 101.22H161.29ZM155.88 96.38L157.7 91.11H157.8L159.62 96.38H155.88Z" fill="white"/>
<path d="M156.15 86.98C156.29 86.81 156.47 86.72 156.7 86.72C156.93 86.72 157.1 86.76 157.25 86.84C157.4 86.92 157.55 87.02 157.7 87.12C157.84 87.23 158.01 87.32 158.2 87.4C158.39 87.48 158.63 87.52 158.91 87.52C159.44 87.52 159.88 87.33 160.24 86.94C160.6 86.56 160.78 86.03 160.79 85.36L159.6 85.28C159.6 85.54 159.53 85.76 159.38 85.93C159.23 86.1 159.05 86.19 158.82 86.2C158.62 86.2 158.44 86.16 158.27 86.08C158.11 86 157.94 85.9 157.78 85.79C157.62 85.68 157.45 85.59 157.26 85.5C157.08 85.42 156.86 85.38 156.61 85.38C156.08 85.38 155.64 85.58 155.28 85.98C154.92 86.38 154.74 86.91 154.74 87.57L155.96 87.61C155.96 87.34 156.03 87.12 156.17 86.95L156.15 86.98Z" fill="white"/>
<path d="M176.11 95.04C176.11 96.36 175.87 97.49 175.39 98.44C174.91 99.39 174.25 100.12 173.41 100.62C172.57 101.13 171.62 101.38 170.56 101.38C169.5 101.38 168.54 101.13 167.7 100.62C166.86 100.11 166.2 99.38 165.72 98.43C165.24 97.48 165 96.35 165 95.03C165 93.71 165.24 92.58 165.72 91.63C166.2 90.68 166.86 89.96 167.7 89.45C168.54 88.94 169.49 88.69 170.56 88.69C171.63 88.69 172.58 88.94 173.41 89.45C174.25 89.96 174.91 90.69 175.39 91.63C175.87 92.58 176.11 93.71 176.11 95.03V95.04ZM174.26 95.04C174.26 94.03 174.1 93.19 173.78 92.5C173.46 91.81 173.01 91.29 172.45 90.93C171.89 90.57 171.26 90.4 170.55 90.4C169.84 90.4 169.2 90.58 168.65 90.93C168.1 91.28 167.65 91.81 167.33 92.5C167.01 93.19 166.84 94.04 166.84 95.04C166.84 96.04 167 96.89 167.33 97.58C167.65 98.27 168.09 98.79 168.65 99.15C169.21 99.51 169.84 99.68 170.55 99.68C171.26 99.68 171.89 99.5 172.45 99.15C173.01 98.79 173.45 98.27 173.78 97.58C174.1 96.89 174.26 96.04 174.26 95.04Z" fill="white"/>
<path d="M187.59 101.22H183.59V88.86H187.71C188.92 88.86 189.96 89.11 190.83 89.6C191.7 90.09 192.36 90.8 192.83 91.72C193.29 92.64 193.53 93.74 193.53 95.02C193.53 96.3 193.3 97.41 192.83 98.34C192.36 99.27 191.69 99.98 190.8 100.47C189.91 100.96 188.85 101.21 187.59 101.21V101.22ZM185.46 99.59H187.49C188.43 99.59 189.21 99.41 189.83 99.06C190.45 98.71 190.92 98.19 191.23 97.51C191.54 96.83 191.69 96.01 191.69 95.03C191.69 94.05 191.54 93.24 191.23 92.56C190.92 91.88 190.47 91.37 189.86 91.02C189.25 90.67 188.5 90.49 187.6 90.49H185.45V99.59H185.46Z" fill="white"/>
<path d="M206.91 95.04C206.91 96.36 206.67 97.49 206.19 98.44C205.71 99.39 205.05 100.12 204.21 100.62C203.37 101.12 202.42 101.38 201.36 101.38C200.3 101.38 199.34 101.13 198.5 100.62C197.66 100.11 197 99.38 196.52 98.43C196.04 97.48 195.8 96.35 195.8 95.03C195.8 93.71 196.04 92.58 196.52 91.63C197 90.68 197.66 89.96 198.5 89.45C199.34 88.94 200.29 88.69 201.36 88.69C202.43 88.69 203.38 88.94 204.21 89.45C205.05 89.96 205.71 90.69 206.19 91.63C206.67 92.58 206.91 93.71 206.91 95.03V95.04ZM205.06 95.04C205.06 94.03 204.9 93.19 204.57 92.5C204.25 91.81 203.8 91.29 203.24 90.93C202.68 90.57 202.05 90.4 201.34 90.4C200.63 90.4 199.99 90.58 199.44 90.93C198.88 91.29 198.44 91.81 198.12 92.5C197.8 93.19 197.63 94.04 197.63 95.04C197.63 96.04 197.79 96.89 198.12 97.58C198.44 98.27 198.88 98.79 199.44 99.15C200 99.51 200.63 99.68 201.34 99.68C202.05 99.68 202.68 99.5 203.24 99.15C203.8 98.79 204.24 98.27 204.57 97.58C204.89 96.89 205.06 96.04 205.06 95.04Z" fill="white"/>
<path d="M222.75 92.76C222.63 92.39 222.48 92.07 222.28 91.77C222.09 91.48 221.85 91.23 221.58 91.02C221.31 90.81 221 90.65 220.66 90.55C220.32 90.44 219.94 90.39 219.53 90.39C218.83 90.39 218.21 90.57 217.65 90.93C217.09 91.29 216.65 91.81 216.33 92.5C216.01 93.19 215.84 94.03 215.84 95.03C215.84 96.03 216 96.88 216.33 97.57C216.66 98.26 217.1 98.79 217.67 99.15C218.24 99.51 218.88 99.69 219.6 99.69C220.27 99.69 220.86 99.55 221.36 99.28C221.86 99.01 222.22 98.6 222.52 98.12C222.88 97.56 222.93 96.44 222.93 96.44H219.88V94.9H224.73V96.31C224.73 97.35 224.51 98.25 224.07 99.01C223.63 99.77 223.02 100.36 222.25 100.77C221.48 101.18 220.59 101.39 219.59 101.39C218.47 101.39 217.49 101.13 216.65 100.62C215.81 100.1 215.15 99.37 214.68 98.43C214.21 97.48 213.98 96.36 213.98 95.05C213.98 94.06 214.12 93.18 214.39 92.4C214.66 91.62 215.05 90.95 215.54 90.4C216.04 89.85 216.62 89.43 217.29 89.14C217.96 88.85 218.7 88.7 219.5 88.7C220.17 88.7 220.79 88.8 221.37 88.99C221.95 89.19 222.46 89.47 222.91 89.83C223.36 90.19 223.74 90.62 224.03 91.12C224.32 91.62 224.53 92.17 224.63 92.77H222.72L222.75 92.76Z" fill="white"/>
<path d="M236.59 101.22L233.85 96.22C233.98 96.17 234.1 96.13 234.22 96.07C234.85 95.75 235.33 95.31 235.64 94.73C235.96 94.16 236.11 93.49 236.11 92.74C236.11 91.99 235.95 91.31 235.64 90.73C235.33 90.15 234.85 89.69 234.22 89.36C233.59 89.03 232.79 88.87 231.84 88.87H227.44V101.23H229.3V96.55H231.83C231.83 96.55 231.91 96.55 231.95 96.55L234.46 101.23H236.58L236.59 101.22ZM229.31 90.46H231.65C232.27 90.46 232.76 90.55 233.14 90.73C233.52 90.91 233.8 91.18 233.98 91.52C234.16 91.86 234.25 92.27 234.25 92.73C234.25 93.19 234.16 93.59 233.98 93.92C233.8 94.25 233.52 94.5 233.15 94.67C232.77 94.84 232.28 94.93 231.68 94.93H229.32V90.45L229.31 90.46Z" fill="white"/>
<path d="M246.67 88.86H248.54V96.99C248.54 97.85 248.34 98.62 247.93 99.29C247.52 99.96 246.95 100.48 246.22 100.86C245.49 101.24 244.62 101.43 243.63 101.43C242.64 101.43 241.79 101.24 241.05 100.86C240.31 100.48 239.74 99.96 239.34 99.29C238.94 98.62 238.73 97.86 238.73 96.99V88.86H240.59V96.84C240.59 97.4 240.71 97.9 240.96 98.33C241.21 98.76 241.56 99.1 242.01 99.35C242.46 99.6 243 99.72 243.63 99.72C244.26 99.72 244.8 99.6 245.25 99.35C245.71 99.1 246.06 98.76 246.3 98.33C246.54 97.9 246.66 97.4 246.66 96.84V88.86H246.67Z" fill="white"/>
<path d="M259.79 90.82C259.48 90.21 259.01 89.74 258.37 89.39C257.74 89.04 256.94 88.87 255.98 88.87H251.58V101.23H253.44V96.89H255.97C256.93 96.89 257.72 96.71 258.35 96.36C258.98 96.01 259.46 95.53 259.77 94.92C260.09 94.31 260.24 93.63 260.24 92.87C260.24 92.11 260.08 91.43 259.77 90.83L259.79 90.82ZM258.12 94.11C257.94 94.48 257.67 94.76 257.29 94.98C256.91 95.19 256.42 95.3 255.81 95.3H253.45V90.47H255.79C256.41 90.47 256.91 90.57 257.29 90.78C257.67 90.98 257.95 91.27 258.12 91.63C258.3 91.99 258.39 92.41 258.39 92.87C258.39 93.33 258.3 93.75 258.12 94.12V94.11Z" fill="white"/>
<path d="M273.5 95.04C273.5 96.36 273.26 97.49 272.78 98.44C272.3 99.39 271.64 100.12 270.8 100.62C269.96 101.12 269.01 101.38 267.95 101.38C266.89 101.38 265.93 101.13 265.09 100.62C264.25 100.11 263.59 99.38 263.11 98.43C262.63 97.48 262.39 96.35 262.39 95.03C262.39 93.71 262.63 92.58 263.11 91.63C263.59 90.68 264.25 89.96 265.09 89.45C265.93 88.94 266.88 88.69 267.95 88.69C269.02 88.69 269.97 88.94 270.8 89.45C271.64 89.96 272.3 90.69 272.78 91.63C273.26 92.58 273.5 93.71 273.5 95.03V95.04ZM271.65 95.04C271.65 94.03 271.49 93.19 271.16 92.5C270.83 91.81 270.39 91.29 269.83 90.93C269.27 90.57 268.64 90.4 267.93 90.4C267.22 90.4 266.58 90.58 266.02 90.93C265.46 91.28 265.02 91.81 264.7 92.5C264.38 93.19 264.22 94.04 264.22 95.04C264.22 96.04 264.38 96.89 264.7 97.58C265.02 98.27 265.46 98.79 266.02 99.15C266.58 99.51 267.21 99.68 267.93 99.68C268.65 99.68 269.27 99.5 269.83 99.15C270.39 98.79 270.83 98.27 271.16 97.58C271.48 96.89 271.65 96.04 271.65 95.04Z" fill="white"/>
<path d="M280.99 88.86H283.25L287.18 98.46H287.32L291.25 88.86H293.51V101.22H291.74V92.28H291.63L287.99 101.2H286.52L282.88 92.27H282.76V101.22H280.99V88.86Z" fill="white"/>
<path d="M307.29 95.04C307.29 96.36 307.05 97.49 306.57 98.44C306.09 99.39 305.43 100.12 304.59 100.62C303.75 101.12 302.8 101.38 301.74 101.38C300.68 101.38 299.72 101.13 298.88 100.62C298.04 100.11 297.38 99.38 296.9 98.43C296.42 97.48 296.18 96.35 296.18 95.03C296.18 93.71 296.42 92.58 296.9 91.63C297.38 90.68 298.04 89.96 298.88 89.45C299.72 88.94 300.67 88.69 301.74 88.69C302.81 88.69 303.76 88.94 304.59 89.45C305.43 89.96 306.09 90.69 306.57 91.63C307.05 92.58 307.29 93.71 307.29 95.03V95.04ZM305.44 95.04C305.44 94.03 305.28 93.19 304.95 92.5C304.62 91.81 304.18 91.29 303.62 90.93C303.06 90.57 302.43 90.4 301.72 90.4C301.01 90.4 300.37 90.58 299.81 90.93C299.25 91.28 298.81 91.81 298.49 92.5C298.17 93.19 298.01 94.04 298.01 95.04C298.01 96.04 298.17 96.89 298.49 97.58C298.81 98.27 299.25 98.79 299.81 99.15C300.37 99.51 301 99.68 301.72 99.68C302.44 99.68 303.06 99.5 303.62 99.15C304.18 98.79 304.62 98.27 304.95 97.58C305.27 96.89 305.44 96.04 305.44 95.04Z" fill="white"/>
<path d="M309.33 90.47V88.87H318.88V90.47H315.03V101.22H313.17V90.47H309.32H309.33Z" fill="white"/>
<path d="M332.05 95.04C332.05 96.36 331.81 97.49 331.33 98.44C330.85 99.39 330.19 100.12 329.35 100.62C328.51 101.12 327.56 101.38 326.5 101.38C325.44 101.38 324.48 101.13 323.64 100.62C322.8 100.11 322.14 99.38 321.66 98.43C321.18 97.48 320.94 96.35 320.94 95.03C320.94 93.71 321.18 92.58 321.66 91.63C322.14 90.68 322.8 89.96 323.64 89.45C324.48 88.94 325.43 88.69 326.5 88.69C327.57 88.69 328.52 88.94 329.35 89.45C330.19 89.96 330.85 90.69 331.33 91.63C331.81 92.58 332.05 93.71 332.05 95.03V95.04ZM330.2 95.04C330.2 94.03 330.04 93.19 329.71 92.5C329.38 91.81 328.94 91.29 328.38 90.93C327.82 90.57 327.19 90.4 326.48 90.4C325.77 90.4 325.13 90.58 324.57 90.93C324.01 91.28 323.57 91.81 323.25 92.5C322.93 93.19 322.77 94.04 322.77 95.04C322.77 96.04 322.93 96.89 323.25 97.58C323.57 98.27 324.01 98.79 324.57 99.15C325.13 99.51 325.76 99.68 326.48 99.68C327.2 99.68 327.82 99.5 328.38 99.15C328.94 98.79 329.38 98.27 329.71 97.58C330.03 96.89 330.2 96.04 330.2 95.04Z" fill="white"/>
<path d="M344.95 92.88H343.07C343 92.48 342.86 92.12 342.67 91.82C342.48 91.52 342.23 91.25 341.95 91.04C341.67 90.83 341.35 90.67 341 90.56C340.65 90.45 340.28 90.4 339.88 90.4C339.17 90.4 338.53 90.58 337.97 90.94C337.41 91.3 336.97 91.82 336.64 92.51C336.32 93.2 336.16 94.05 336.16 95.04C336.16 96.03 336.32 96.89 336.64 97.59C336.96 98.28 337.41 98.8 337.97 99.16C338.53 99.52 339.17 99.69 339.87 99.69C340.26 99.69 340.63 99.64 340.98 99.53C341.33 99.42 341.65 99.27 341.94 99.06C342.23 98.85 342.47 98.59 342.67 98.29C342.87 97.99 343.01 97.64 343.08 97.24H344.96C344.86 97.85 344.67 98.41 344.38 98.92C344.09 99.43 343.72 99.87 343.28 100.23C342.83 100.6 342.32 100.88 341.75 101.08C341.18 101.28 340.55 101.38 339.87 101.38C338.8 101.38 337.85 101.13 337.01 100.62C336.17 100.11 335.52 99.38 335.04 98.43C334.56 97.48 334.32 96.35 334.32 95.03C334.32 93.71 334.56 92.58 335.04 91.63C335.52 90.68 336.18 89.96 337.02 89.45C337.86 88.94 338.81 88.69 339.87 88.69C340.53 88.69 341.14 88.78 341.71 88.97C342.28 89.16 342.79 89.43 343.24 89.79C343.69 90.15 344.07 90.59 344.37 91.1C344.67 91.62 344.87 92.21 344.97 92.87L344.95 92.88Z" fill="white"/>
<path d="M349.39 88.86V101.22H347.53V88.86H349.39Z" fill="white"/>
<path d="M362.69 92.88H360.81C360.74 92.48 360.6 92.12 360.41 91.82C360.22 91.52 359.97 91.25 359.69 91.04C359.41 90.83 359.09 90.67 358.74 90.56C358.39 90.45 358.02 90.4 357.62 90.4C356.91 90.4 356.27 90.58 355.71 90.94C355.15 91.3 354.71 91.82 354.38 92.51C354.06 93.2 353.9 94.05 353.9 95.04C353.9 96.03 354.06 96.89 354.38 97.59C354.7 98.28 355.15 98.8 355.71 99.16C356.27 99.52 356.91 99.69 357.61 99.69C358 99.69 358.37 99.64 358.72 99.53C359.07 99.42 359.39 99.27 359.68 99.06C359.97 98.85 360.21 98.59 360.41 98.29C360.61 97.99 360.75 97.64 360.82 97.24H362.7C362.6 97.85 362.41 98.41 362.12 98.92C361.83 99.43 361.46 99.87 361.02 100.23C360.57 100.6 360.06 100.88 359.49 101.08C358.92 101.28 358.29 101.38 357.61 101.38C356.54 101.38 355.59 101.13 354.75 100.62C353.91 100.11 353.26 99.38 352.78 98.43C352.3 97.48 352.06 96.35 352.06 95.03C352.06 93.71 352.3 92.58 352.78 91.63C353.26 90.68 353.92 89.96 354.76 89.45C355.6 88.94 356.55 88.69 357.61 88.69C358.27 88.69 358.88 88.78 359.45 88.97C360.02 89.16 360.53 89.43 360.98 89.79C361.43 90.15 361.81 90.59 362.11 91.1C362.41 91.62 362.61 92.21 362.71 92.87L362.69 92.88Z" fill="white"/>
<path d="M365.26 101.22V88.86H367.12V99.61H372.71V101.21H365.25L365.26 101.22Z" fill="white"/>
<path d="M385.9 95.04C385.9 96.36 385.66 97.49 385.18 98.44C384.7 99.39 384.04 100.12 383.2 100.62C382.36 101.12 381.41 101.38 380.35 101.38C379.29 101.38 378.33 101.13 377.49 100.62C376.65 100.11 375.99 99.38 375.51 98.43C375.03 97.48 374.79 96.35 374.79 95.03C374.79 93.71 375.03 92.58 375.51 91.63C375.99 90.68 376.65 89.96 377.49 89.45C378.33 88.94 379.28 88.69 380.35 88.69C381.42 88.69 382.37 88.94 383.2 89.45C384.04 89.96 384.7 90.69 385.18 91.63C385.66 92.58 385.9 93.71 385.9 95.03V95.04ZM384.05 95.04C384.05 94.03 383.89 93.19 383.56 92.5C383.23 91.81 382.79 91.29 382.23 90.93C381.67 90.57 381.04 90.4 380.33 90.4C379.62 90.4 378.98 90.58 378.42 90.93C377.86 91.28 377.42 91.81 377.1 92.5C376.78 93.19 376.62 94.04 376.62 95.04C376.62 96.04 376.78 96.89 377.1 97.58C377.42 98.27 377.86 98.79 378.42 99.15C378.98 99.51 379.61 99.68 380.33 99.68C381.05 99.68 381.67 99.5 382.23 99.15C382.79 98.79 383.23 98.27 383.56 97.58C383.88 96.89 384.05 96.04 384.05 95.04Z" fill="white"/>
</g>
<defs>
<clipPath id="clip0_10_58">
<rect width="405" height="105" fill="white"/>
</clipPath>
</defs>
</svg>
