<svg width="400" height="70" viewBox="0 0 400 70" fill="none" xmlns="http://www.w3.org/2000/svg">
<g clip-path="url(#clip0_4_48)">
<path d="M84.39 25.13C80.73 25.13 77.75 26.96 73.58 31.96C73.11 29.03 72.18 27.09 70.51 25.43L69.94 24.86L65.67 27.38L66.38 28.31C68.4 30.93 68.92 33.42 68.92 40.43V69.05H74.04V37.86C78.48 32.35 80.95 30.36 83.72 30.03C85.66 29.85 87.18 30.22 90.01 31.54L91.17 32.08L92.35 27.24L91.52 26.9C88.27 25.57 86.78 25.12 84.39 25.12V25.13Z" fill="#1D1D1B"/>
<path d="M129.39 61.66C125.39 64.19 122.54 65.09 118.47 65.09C109.01 65.09 102.15 57.5 102.15 47.05C102.15 37.2 108.78 30.04 117.9 30.04C121.56 30.04 125.2 31.22 128.71 33.55L129.58 34.13L132.32 29.96L131.51 29.38C127.37 26.44 123.15 25.13 117.81 25.13C106.3 25.13 96.94 34.96 96.94 47.05C96.94 60.78 105.6 70 118.48 70C123.62 70 127.76 68.69 131.9 65.74L132.66 65.2L130.34 61.07L129.41 61.66H129.39Z" fill="#1D1D1B"/>
<path d="M49.64 7.09C47.46 7.09 45.94 8.6 45.94 10.77C45.94 12.94 47.46 14.45 49.64 14.45C51.82 14.45 53.34 12.94 53.34 10.77C53.34 8.6 51.82 7.09 49.64 7.09Z" fill="#1D1D1B"/>
<path d="M179.5 65.28C178.29 65.39 176.9 65.13 176.6 64C176.28 63.05 176.27 62.65 176.27 58.66V26.07H171.15V59.89C166.37 63.99 163.61 65.18 159.1 65.18C156.05 65.18 153.06 64.13 151.28 62.44C149.4 60.65 148.66 58.37 148.66 54.31V26.06H143.54V54.02C143.54 59.75 144.48 62.75 147.17 65.52C150.02 68.35 154.2 69.98 158.63 69.98C163.47 69.98 166.92 68.69 171.58 65C172.29 68.11 174.54 69.79 178.08 69.79C179.51 69.79 180.17 69.68 181.29 69.38L181.94 69.2L182.69 64.57L181.11 65.02C180.48 65.2 179.91 65.26 179.5 65.27V65.28Z" fill="#1D1D1B"/>
<path d="M52.01 26.07H46.89V69.05H52.01V26.07Z" fill="#1D1D1B"/>
<path d="M32.46 61.66C28.47 64.19 25.61 65.09 21.54 65.09C12.08 65.09 5.22 57.5 5.22 47.05C5.22 37.2 11.84 30.04 20.97 30.04C24.63 30.04 28.27 31.22 31.78 33.55L32.65 34.13L35.39 29.96L34.58 29.38C30.44 26.44 26.21 25.13 20.88 25.13C9.36 25.13 0 34.96 0 47.05C0 60.78 8.66 70 21.54 70C26.68 70 30.82 68.69 34.96 65.74L35.72 65.2L33.4 61.07L32.47 61.66H32.46Z" fill="#1D1D1B"/>
<path d="M346.28 65.28C344.71 65.42 343.6 64.94 343.3 64.08C343.05 63.07 343.05 62.57 343.05 58.66V0H337.93V27.54C334.04 25.77 330.97 25.13 326.82 25.13C315.21 25.13 306.36 34.29 305.76 46.9C305.4 53.59 307.56 59.91 311.68 64.24C315.22 67.96 319.99 70.01 325.12 70.01C330.67 70.01 334.14 68.96 338.52 65.81C339.33 68.29 341.65 69.82 344.85 69.82C346.28 69.82 346.93 69.71 348.06 69.41L348.71 69.23L349.44 64.65L347.91 65.03C347.22 65.2 346.73 65.28 346.27 65.29L346.28 65.28ZM337.93 33.16V60.97C333.33 64.27 330.08 65.35 325.64 65.09C316.69 64.65 310.52 57 310.97 46.9C311.42 37.07 317.93 29.94 326.44 29.94C331.4 29.94 333.87 30.61 337.92 33.16H337.93Z" fill="#1D1D1B"/>
<path d="M378.84 25.22C366.63 25.22 357.78 34.67 357.78 47.7C357.78 60.73 366.6 69.99 379.22 69.99C391.84 69.99 400 60.57 400 47.6C400 34.63 391.5 25.21 378.84 25.21V25.22ZM394.78 47.52C394.78 58.58 388.71 65.19 378.55 65.19C369.97 65.19 362.99 57.43 362.99 47.9C362.99 37.22 369.17 30.04 378.36 30.04C388.33 30.04 394.78 36.9 394.78 47.52Z" fill="#1D1D1B"/>
<path d="M244.05 65.28C242.85 65.39 241.45 65.13 241.15 64C240.83 63.05 240.82 62.65 240.82 58.66V40.62C240.82 36.63 240.56 34.46 239.8 32.31C237.94 27.47 232.68 24.72 226.03 25.13C222.01 25.43 218.61 26.56 214.3 29.05L213.78 29.35V34.71L215.36 33.77C219.35 31.39 222.02 30.41 225.55 30.04C229.38 29.69 232.47 30.62 234.02 32.56C235.16 34.08 235.71 35.66 235.71 40.54V42.15C229.91 42.75 228.61 42.93 226.98 43.2C217.13 45 212.31 49.39 211.8 56.99C211.55 60.49 212.68 63.78 214.98 66.24C217.25 68.67 220.4 70.01 223.85 70.01C228.62 70.01 232.35 68.78 236.34 65.83C237.18 68.33 239.46 69.82 242.64 69.82C244.07 69.82 244.72 69.71 245.85 69.41L246.5 69.23L247.24 64.6L245.67 65.05C245.04 65.23 244.47 65.29 244.06 65.3L244.05 65.28ZM227.15 47.78C230.12 47.26 232.18 46.99 235.7 46.66V60.95C230.92 64.22 228.63 65.08 224.88 65.08C222.44 65.08 220.29 64.23 218.82 62.69C217.45 61.25 216.79 59.35 216.9 57.2C217.16 52.01 220.42 49.01 227.14 47.78H227.15Z" fill="#1D1D1B"/>
<path d="M276.61 25.13C271.5 25.13 267.37 26.93 263.11 31.09C262.62 28.83 261.61 26.87 260.17 25.44L259.6 24.87L255.33 27.39L256.04 28.32C258.06 30.94 258.58 33.43 258.58 40.44V69.06H263.7V36.31C268.02 31.74 271.53 29.95 276.13 29.95C279.4 29.95 282.18 30.9 284.14 32.68C286.27 34.72 287.14 37.51 287.14 42.32V69.05H292.26V40.9C292.26 31.32 286.12 25.12 276.61 25.12V25.13Z" fill="#1D1D1B"/>
<path d="M198.77 0H193.65V69.06H198.77V0Z" fill="#1D1D1B"/>
</g>
<defs>
<clipPath id="clip0_4_48">
<rect width="400" height="70" fill="white"/>
</clipPath>
</defs>
</svg>
