<svg width="50" height="38" viewBox="0 0 50 38" fill="none" xmlns="http://www.w3.org/2000/svg">
<g clip-path="url(#clip0_15_6)">
<path d="M22.3333 12.0727H11.1583C10.7 12.0727 10.325 12.4491 10.325 12.9093C10.325 13.3694 10.7 13.7459 11.1583 13.7459H22.3333C22.7917 13.7459 23.1667 13.3694 23.1667 12.9093C23.1667 12.4491 22.7917 12.0727 22.3333 12.0727Z" fill="white"/>
<path d="M22.3333 7.26199H11.1583C10.7 7.26199 10.325 7.63848 10.325 8.09863C10.325 8.55878 10.7 8.93527 11.1583 8.93527H22.3333C22.7917 8.93527 23.1667 8.55878 23.1667 8.09863C23.1667 7.63848 22.7917 7.26199 22.3333 7.26199Z" fill="white"/>
<path d="M22.3333 21.7107H11.1583C10.7 21.7107 10.325 22.0872 10.325 22.5473C10.325 23.0075 10.7 23.384 11.1583 23.384H22.3333C22.7917 23.384 23.1667 23.0075 23.1667 22.5473C23.1667 22.0872 22.7917 21.7107 22.3333 21.7107Z" fill="white"/>
<path d="M22.3333 16.8917H11.1583C10.7 16.8917 10.325 17.2682 10.325 17.7283C10.325 18.1885 10.7 18.5649 11.1583 18.5649H22.3333C22.7917 18.5649 23.1667 18.1885 23.1667 17.7283C23.1667 17.2682 22.7917 16.8917 22.3333 16.8917Z" fill="white"/>
<path d="M36.35 17.2682L37.2167 16.7913C37.7083 16.5236 37.975 15.9881 37.9 15.4276C37.825 14.867 37.425 14.4236 36.8833 14.2897L27.9417 12.1145C27.4417 11.989 26.9167 12.1647 26.5917 12.5663C26.2583 12.9678 26.1917 13.5117 26.4083 13.9885L30.2333 22.3884C30.4667 22.8987 30.9833 23.2166 31.5333 23.1748C32.0917 23.1413 32.5667 22.7732 32.7333 22.2378L33.0417 21.2924L35.5167 23.3421C35.7667 23.5513 36.0667 23.6517 36.375 23.6517C36.7667 23.6517 37.15 23.4844 37.4167 23.1664L39.0167 21.2254C39.2417 20.9494 39.35 20.598 39.3167 20.2382C39.2833 19.8785 39.1083 19.5522 38.8333 19.3263L36.3583 17.2765L36.35 17.2682Z" fill="white"/>
<path d="M20.25 32.5368C20.5833 33.0973 21.1917 33.4487 21.8417 33.4487H27.0417C27.6917 33.4487 28.3 33.0973 28.6333 32.5368C29.2583 31.4575 30.4167 30.7882 31.6583 30.7882H46.825V3.56407C46.825 1.59797 45.2333 0 43.275 0H6.71665C4.76665 0 3.17499 1.58961 3.17499 3.54734V30.7882H17.2167C18.4583 30.7882 19.6167 31.4575 20.25 32.5368ZM6.00832 27.1154V3.67283C6.00832 3.21268 6.38332 2.8362 6.84165 2.8362H43.1667C43.625 2.8362 44 3.21268 44 3.67283V27.1154C44 27.5755 43.625 27.952 43.1667 27.952H6.84165C6.38332 27.952 6.00832 27.5755 6.00832 27.1154Z" fill="white"/>
<path d="M49.7083 32.4615H31.6583C31.0083 32.4615 30.4 32.8129 30.0667 33.3818C29.4417 34.461 28.275 35.122 27.0333 35.122H21.8333C20.5917 35.122 19.4333 34.4527 18.8083 33.3818C18.475 32.8129 17.8667 32.4615 17.2167 32.4615H0.291667C0.133333 32.4615 0 32.5953 0 32.7543V35.0801C0 36.5275 0.541667 38.0084 4.58333 38.0084H45.425C47.95 38.0084 50.0083 35.9419 50.0083 33.4069V32.7543C50.0083 32.5953 49.875 32.4615 49.7167 32.4615H49.7083Z" fill="white"/>
</g>
<defs>
<clipPath id="clip0_15_6">
<rect width="50" height="38" fill="white"/>
</clipPath>
</defs>
</svg>
