<svg width="50" height="50" viewBox="0 0 50 50" fill="none" xmlns="http://www.w3.org/2000/svg">
<g clip-path="url(#clip0_15_2)">
<path d="M25 50C38.8071 50 50 38.8071 50 25C50 11.1929 38.8071 0 25 0C11.1929 0 0 11.1929 0 25C0 38.8071 11.1929 50 25 50Z" fill="#4D4D4D"/>
<path d="M30.925 37.5083H17.9C17.125 37.5083 16.5 36.875 16.5 36.0917C16.5 35.3083 17.1333 34.675 17.9 34.675H30.925C32.7667 34.675 34.4917 33.9667 35.8 32.675C37.0917 31.4 37.8083 29.7 37.8083 27.8917C37.8083 27.0167 37.625 26.125 37.2917 25.3083C36.95 24.4833 36.45 23.7417 35.8 23.1C35.15 22.4667 34.4 21.9667 33.5667 21.6333C32.7167 21.2833 31.825 21.1167 30.9167 21.1167H14.2083L18.8667 25.7167C19.425 26.2583 19.425 27.1583 18.8917 27.7167C18.3417 28.275 17.4583 28.2833 16.9083 27.7417L9.8 20.7083L9.78334 20.6917C9.66667 20.575 9.58334 20.4417 9.50834 20.3C9.49167 20.275 9.48334 20.25 9.475 20.2333C9.40834 20.075 9.375 19.9 9.36667 19.7167V19.675C9.36667 19.4917 9.40834 19.325 9.475 19.1583C9.475 19.1333 9.5 19.1083 9.5 19.0917H9.51667C9.58334 18.95 9.675 18.8167 9.79167 18.7C9.79167 18.7 9.79167 18.7 9.80834 18.6833L16.9083 11.6583C17.4667 11.1167 18.35 11.125 18.8917 11.6833C19.4333 12.2417 19.425 13.1333 18.8667 13.6833L14.2083 18.2833H30.9167C32.1833 18.2833 33.4333 18.525 34.6167 19.0083C35.7917 19.4917 36.8417 20.1833 37.7583 21.0833C38.6667 21.9917 39.3833 23.0417 39.875 24.2167C40.3667 25.3917 40.6167 26.625 40.6167 27.8917C40.6167 30.475 39.6083 32.8917 37.7667 34.7C35.925 36.5083 33.5 37.5083 30.925 37.5083Z" fill="white"/>
</g>
<defs>
<clipPath id="clip0_15_2">
<rect width="50" height="50" fill="white"/>
</clipPath>
</defs>
</svg>
