<svg width="50" height="51" viewBox="0 0 50 51" fill="none" xmlns="http://www.w3.org/2000/svg">
<path d="M14.65 0.599992C11.99 0.729992 10.17 1.14999 8.59 1.76999C6.95 2.40999 5.55 3.26999 4.17 4.65999C2.78 6.04999 1.93 7.44998 1.29 9.08998C0.669996 10.68 0.259996 12.5 0.139996 15.16C0.0199964 17.83 -3.63728e-06 18.68 0.00999636 25.47C0.0199964 32.26 0.0499964 33.11 0.179996 35.78C0.309996 38.44 0.729996 40.26 1.35 41.84C1.99 43.48 2.85 44.88 4.24 46.26C5.63 47.65 7.03 48.5 8.67 49.13C10.26 49.74 12.08 50.16 14.74 50.28C17.41 50.4 18.26 50.42 25.04 50.41C31.83 50.4 32.68 50.37 35.35 50.24C38.01 50.11 39.83 49.69 41.41 49.07C43.05 48.43 44.45 47.57 45.83 46.18C47.22 44.79 48.07 43.39 48.7 41.75C49.32 40.16 49.73 38.34 49.85 35.68C49.97 33.01 49.99 32.16 49.98 25.37C49.97 18.58 49.94 17.73 49.81 15.07C49.68 12.41 49.26 10.59 48.64 8.99999C48 7.35999 47.14 5.95999 45.75 4.57999C44.36 3.18999 42.96 2.33999 41.32 1.70999C39.73 1.08999 37.91 0.669984 35.25 0.559984C32.58 0.439984 31.73 0.419979 24.94 0.429979C18.15 0.439979 17.3 0.469992 14.63 0.599992M14.92 45.79C12.48 45.68 11.16 45.28 10.28 44.94C9.11 44.49 8.28 43.95 7.4 43.08C6.52 42.21 5.98 41.37 5.52 40.21C5.18 39.33 4.77 38.01 4.65 35.57C4.53 32.94 4.5 32.14 4.49 25.47C4.48 18.8 4.5 18.01 4.62 15.37C4.72 12.93 5.13 11.61 5.47 10.73C5.92 9.55998 6.46 8.72999 7.33 7.84999C8.2 6.96999 9.04 6.42999 10.2 5.96999C11.08 5.62999 12.4 5.21999 14.84 5.09999C17.48 4.97999 18.27 4.94999 24.94 4.93999C31.62 4.92999 32.41 4.94999 35.04 5.06999C37.48 5.17999 38.8 5.57998 39.68 5.91998C40.85 6.36998 41.68 6.90998 42.56 7.77998C43.44 8.64998 43.98 9.47998 44.44 10.65C44.78 11.53 45.19 12.85 45.31 15.29C45.44 17.93 45.46 18.72 45.48 25.39C45.49 32.07 45.47 32.86 45.35 35.49C45.24 37.93 44.84 39.25 44.5 40.13C44.05 41.3 43.51 42.13 42.63 43.01C41.76 43.88 40.93 44.43 39.76 44.89C38.88 45.23 37.56 45.64 35.12 45.76C32.48 45.88 31.69 45.91 25.02 45.92C18.35 45.93 17.56 45.91 14.92 45.79ZM35.3 12.06C35.3 13.72 36.65 15.06 38.31 15.05C39.97 15.05 41.31 13.7 41.3 12.05C41.3 10.39 39.95 9.04998 38.29 9.05998C36.63 9.05998 35.29 10.41 35.3 12.07M12.15 25.46C12.16 32.55 17.92 38.28 25.01 38.27C32.1 38.26 37.84 32.5 37.82 25.41C37.81 18.32 32.05 12.58 24.96 12.6C17.87 12.61 12.14 18.37 12.15 25.46ZM16.65 25.46C16.65 20.86 20.37 17.12 24.97 17.11C29.57 17.11 33.31 20.82 33.32 25.43C33.32 30.03 29.6 33.77 25 33.78C20.4 33.78 16.66 30.07 16.65 25.46Z" fill="white"/>
</svg>
