<svg width="60" height="45" viewBox="0 0 60 45" fill="none" xmlns="http://www.w3.org/2000/svg">
<g clip-path="url(#clip0_7_7)">
<path d="M60 22.56C59.98 23.18 59.73 23.79 59.25 24.26L38.69 44.26C37.69 45.24 36.06 45.24 35.05 44.26C34.05 43.28 34.05 41.7 35.05 40.72L51.23 24.97H2.57C1.15 24.99 0 23.87 0 22.49C0 21.11 1.15 19.99 2.57 19.99H51.21L35.05 4.27C34.05 3.29 34.05 1.71 35.05 0.729995C36.05 -0.250005 37.68 -0.250005 38.69 0.729995L59.09 20.57C59.65 21.03 60 21.71 60 22.48C60 22.51 60 22.53 60 22.56Z" fill="#E20613"/>
</g>
<defs>
<clipPath id="clip0_7_7">
<rect width="60" height="45" fill="white"/>
</clipPath>
</defs>
</svg>
