<svg width="40" height="40" viewBox="0 0 40 40" fill="none" xmlns="http://www.w3.org/2000/svg">
<g clip-path="url(#clip0_11_103)">
<path d="M20 40C31.0457 40 40 31.0457 40 20C40 8.9543 31.0457 0 20 0C8.9543 0 0 8.9543 0 20C0 31.0457 8.9543 40 20 40Z" fill="#E20613"/>
<mask id="mask0_11_103" style="mask-type:luminance" maskUnits="userSpaceOnUse" x="11" y="11" width="18" height="18">
<path d="M29 11H11V29H29V11Z" fill="white"/>
</mask>
<g mask="url(#mask0_11_103)">
<path fill-rule="evenodd" clip-rule="evenodd" d="M28.26 14.86C29.16 14.01 29.21 12.6 28.36 11.7C27.51 10.8 26.1 10.75 25.2 11.6C25.2 11.6 25.13 11.67 25.1 11.7L19.98 16.83L14.86 11.71C14.02 10.81 12.6 10.76 11.7 11.61C10.8 12.45 10.75 13.87 11.6 14.77C11.63 14.81 11.67 14.84 11.7 14.87L16.83 19.99L11.71 25.11C10.83 25.97 10.81 27.39 11.67 28.27C12.51 29.13 13.87 29.17 14.76 28.37L14.86 28.27L19.98 23.15L25.1 28.27C25.93 29.18 27.35 29.24 28.26 28.41C29.16 27.59 29.23 26.2 28.43 25.29C28.41 25.27 28.38 25.24 28.36 25.22C28.34 25.2 28.29 25.15 28.26 25.12L23.14 20L28.26 14.88V14.86Z" fill="white"/>
</g>
</g>
<defs>
<clipPath id="clip0_11_103">
<rect width="40" height="40" fill="white"/>
</clipPath>
</defs>
</svg>
