<svg width="60" height="45" viewBox="0 0 60 45" fill="none" xmlns="http://www.w3.org/2000/svg">
<g clip-path="url(#clip0_8_2)">
<path d="M0 22.56C0.02 23.18 0.27 23.79 0.75 24.26L21.31 44.26C22.31 45.24 23.94 45.24 24.95 44.26C25.95 43.28 25.95 41.7 24.95 40.72L8.77 24.97H57.44C58.86 24.97 60.01 23.85 60.01 22.47C60.01 21.09 58.86 19.97 57.44 19.97H8.79L24.95 4.27C25.95 3.29 25.95 1.71 24.95 0.729999C23.95 -0.250001 22.32 -0.250001 21.31 0.729999L0.91 20.58C0.35 21.04 0 21.72 0 22.49C0 22.52 0 22.54 0 22.57V22.56Z" fill="#E20613"/>
</g>
<defs>
<clipPath id="clip0_8_2">
<rect width="60" height="45" fill="white"/>
</clipPath>
</defs>
</svg>
