<svg width="50" height="50" viewBox="0 0 50 50" fill="none" xmlns="http://www.w3.org/2000/svg">
<g clip-path="url(#clip0_16_15)">
<path d="M29.4812 44.3062C30.3687 43.3812 31.1938 42.2562 31.925 40.9562L31.1375 38.0063C29.45 41.8688 27.1312 44.4875 24.5625 45.0313V35.8437H30.5625L30.025 33.8562H24.5625V24.5625H33.8438C33.8063 26.4062 33.6437 28.1938 33.3875 29.8938L35.3375 30.4187C35.625 28.5625 35.7938 26.6 35.8375 24.5625H45.1188C44.9938 27.3937 44.3125 30.0813 43.1875 32.525L45.125 33.0437C46.4062 30.1375 47.1187 26.9313 47.1187 23.5625C47.125 10.5687 36.5563 0 23.5625 0C10.5687 0 0 10.5687 0 23.5625C0 36.5563 10.5687 47.125 23.5625 47.125C26.9313 47.125 30.1375 46.4062 33.0437 45.1312L32.5187 43.1812C31.5437 43.6312 30.5312 44.0125 29.4812 44.3062ZM22.5688 2.09375V11.2812H15.1625C16.8625 6.25 19.55 2.7375 22.5688 2.09375ZM22.5688 22.5688H13.2875C13.3625 19.2375 13.8187 16.075 14.5687 13.275H22.5688V22.5688ZM17.6375 2.81875H17.6437C15.7312 4.79375 14.1438 7.71875 13.025 11.2812H5.83125C8.64375 7.24375 12.8 4.2 17.6375 2.81875ZM4.60625 13.275H12.475C11.7875 16.0875 11.3687 19.2313 11.3 22.5688H2.01875C2.16875 19.2188 3.0875 16.0625 4.60625 13.275ZM2.01875 24.5563H11.3C11.3687 27.8938 11.7812 31.0375 12.475 33.85H4.60625C3.09375 31.0625 2.16875 27.9063 2.01875 24.5563ZM5.84375 35.8437H13.0313C14.1438 39.4062 15.7375 42.3312 17.65 44.3062C12.8062 42.9187 8.65625 39.8812 5.84375 35.8437ZM22.5688 45.0313C19.55 44.3875 16.8625 40.8687 15.1625 35.8437H22.5688V45.0313ZM22.5688 33.85H14.5687C13.8187 31.05 13.3625 27.8875 13.2875 24.5563H22.5688V33.85ZM45.1125 22.5688H35.8313C35.7625 19.2313 35.3563 16.0875 34.6563 13.275H42.525C44.0438 16.0625 44.9625 19.2188 45.1125 22.5688ZM29.4812 2.81875C34.325 4.20625 38.475 7.24375 41.2875 11.2812H34.0937C32.9812 7.71875 31.3875 4.79375 29.475 2.81875H29.4812ZM24.5563 2.09375C27.575 2.7375 30.2625 6.25625 31.9625 11.2812H24.5563V2.09375ZM24.5563 13.275H32.5563C33.3063 16.075 33.7625 19.2375 33.8375 22.5688H24.5563V13.275Z" fill="white"/>
<path d="M44.6188 38.8687L47.575 35.9063H47.5813L31.6313 31.625L35.9063 47.575L38.8688 44.6187L44.25 50L50 44.25L44.6188 38.8687ZM44.25 47.1875L38.8688 41.8062L36.9375 43.7375L34.4438 34.4438L43.7375 36.9375L41.8063 38.8687L47.1875 44.25L44.25 47.1875Z" fill="white"/>
</g>
<defs>
<clipPath id="clip0_16_15">
<rect width="50" height="50" fill="white"/>
</clipPath>
</defs>
</svg>
