<svg width="500" height="130" viewBox="0 0 500 130" fill="none" xmlns="http://www.w3.org/2000/svg">
<g clip-path="url(#clip0_3_2)">
<path d="M154.699 47.8232L154.108 50.7509C157.206 48.5755 161.058 46.9893 165.165 46.9893C170.606 46.9893 175.131 49.5001 178.147 53.5881C181.245 50.9957 186.941 46.9893 194.309 46.9893C199.669 46.9893 205.111 49.3278 208.464 54.0957C210.471 57.0234 211.48 60.6129 211.48 64.4561C211.48 66.7131 211.225 69.0517 210.807 71.5625L207.964 87.5247H196.989L200.169 69.7225C200.505 67.8009 200.669 66.55 200.669 64.9637C200.669 60.4497 197.989 57.0234 193.219 57.0234C188.358 57.0234 184.343 60.1143 181.663 62.9515C181.745 63.45 181.745 63.9576 181.745 64.4561C181.745 66.7131 181.49 69.0517 181.072 71.5625L178.229 87.5247H167.254L170.434 69.7225C170.77 67.8009 170.934 66.55 170.934 64.9637C170.934 60.4497 168.253 57.0234 163.484 57.0234C159.632 57.0234 155.862 59.1989 153.018 62.036L148.494 87.5247H137.519L144.551 47.8322H154.681L154.699 47.8232Z" fill="#1D1D1B"/>
<path d="M236.018 88.3496C224.208 88.3496 215.332 79.4938 215.332 68.5441C215.332 56.5974 225.634 46.9893 237.69 46.9893C249.5 46.9893 258.376 55.8451 258.376 66.7947C258.376 78.7415 248.074 88.3496 236.018 88.3496ZM236.018 78.3245C242.214 78.3245 247.493 73.0581 247.493 66.7947C247.493 61.193 243.223 57.0144 237.69 57.0144C231.494 57.0144 226.216 62.2807 226.216 68.5441C226.216 74.1459 230.486 78.3245 236.018 78.3245Z" fill="#1D1D1B"/>
<path d="M291.128 87.5157C289.12 88.1865 286.185 88.3496 283.923 88.3496C274.965 88.3496 268.015 82.5847 268.015 73.4751C268.015 71.3904 268.352 69.2149 268.769 66.8763L270.532 57.0144H259.23L260.902 47.8232H272.204L274.211 36.5472H285.186L283.178 47.8232H296.996L295.325 57.0144H281.507L279.499 68.2088C279.244 69.4597 278.908 71.7167 278.908 72.7228C278.908 76.9014 280.834 78.7415 285.359 78.7415C286.612 78.7415 288.375 78.5783 289.374 78.3245L291.137 87.5157H291.128Z" fill="#1D1D1B"/>
<path d="M315.666 88.3496C303.856 88.3496 294.98 79.4938 294.98 68.5441C294.98 56.5974 305.282 46.9893 317.338 46.9893C329.148 46.9893 338.024 55.8451 338.024 66.7947C338.024 78.7415 327.722 88.3496 315.666 88.3496ZM315.666 78.3245C321.862 78.3245 327.14 73.0581 327.14 66.7947C327.14 61.193 322.87 57.0144 317.338 57.0144C311.142 57.0144 305.863 62.2807 305.863 68.5441C305.863 74.1459 310.133 78.3245 315.666 78.3245Z" fill="#1D1D1B"/>
<path d="M377.053 82.0771C373.119 85.7572 368.177 88.3406 361.391 88.3406C349.244 88.3406 340.205 79.5663 340.205 68.2904C340.205 56.1714 350.334 46.9802 362.399 46.9802C369.267 46.9802 375.127 49.7358 379.061 54.4129L371.938 61.0117C369.594 58.6732 366.66 57.0053 362.726 57.0053C356.866 57.0053 351.088 61.7641 351.088 68.2813C351.088 73.7924 355.613 78.3064 361.727 78.3064C364.907 78.3064 367.923 77.0555 370.603 74.7169L377.053 82.0681V82.0771Z" fill="#1D1D1B"/>
<path d="M397.076 47.8232L390.045 87.5157H379.07L386.102 47.8232H397.076ZM394.142 26.5131C398.076 26.5131 401.265 29.5224 401.265 33.4472C401.265 37.3721 398.085 40.3814 394.142 40.3814C390.208 40.3814 387.019 37.3721 387.019 33.4472C387.019 29.5224 390.199 26.5131 394.142 26.5131Z" fill="#1D1D1B"/>
<path d="M435.433 82.0771C431.499 85.7572 426.557 88.3406 419.771 88.3406C407.624 88.3406 398.585 79.5663 398.585 68.2904C398.585 56.1714 408.714 46.9802 420.779 46.9802C427.647 46.9802 433.507 49.7358 437.441 54.4129L430.318 61.0117C427.974 58.6732 425.04 57.0053 421.106 57.0053C415.246 57.0053 409.468 61.7641 409.468 68.2813C409.468 73.7924 413.993 78.3064 420.107 78.3064C423.287 78.3064 426.303 77.0555 428.983 74.7169L435.433 82.0681V82.0771Z" fill="#1D1D1B"/>
<path d="M447.998 28.1899H458.972L448.416 87.5157H437.441L447.998 28.1899Z" fill="#1D1D1B"/>
<path d="M477.642 88.3496C465.831 88.3496 456.955 79.4938 456.955 68.5441C456.955 56.5974 467.258 46.9893 479.314 46.9893C491.124 46.9893 500 55.8451 500 66.7947C500 78.7415 489.698 88.3496 477.642 88.3496ZM477.642 78.3245C483.838 78.3245 489.116 73.0581 489.116 66.7947C489.116 61.193 484.846 57.0144 479.314 57.0144C473.118 57.0144 467.839 62.2807 467.839 68.5441C467.839 74.1459 472.109 78.3245 477.633 78.3245H477.642Z" fill="#1D1D1B"/>
<path d="M147.086 96.154C150.511 96.154 153.154 97.704 154.935 99.544L153.727 100.695C152.291 99.1996 150.22 97.7946 147.086 97.7946C141.762 97.7946 138.11 102.155 138.11 107.067C138.11 111.89 141.68 115.189 146.395 115.189C149.039 115.189 151.201 114.074 152.727 112.406L153.936 113.557C152.091 115.533 149.448 116.83 146.368 116.83C140.699 116.83 136.383 112.841 136.383 107.076C136.383 101.312 140.672 96.1721 147.086 96.1721V96.154Z" fill="#1D1D1B"/>
<path d="M172.832 105.019C172.66 104.992 172.605 104.992 172.46 104.992C170.588 104.992 168.862 106.397 167.999 107.829L166.5 116.521H164.865L167.109 103.723H168.744L168.49 105.218C169.18 104.439 170.616 103.442 172.405 103.442C172.66 103.442 172.896 103.469 173.214 103.532L172.841 105.028L172.832 105.019Z" fill="#1D1D1B"/>
<path d="M193.855 115.035C192.701 116.123 190.975 116.811 189.249 116.811C187.813 116.811 186.342 116.494 185.106 115.552C183.671 114.4 182.689 112.597 182.689 110.476C182.689 106.569 185.624 103.442 189.303 103.442C192.756 103.442 194.972 106.052 194.972 109.524C194.972 109.787 194.972 110.013 194.945 110.267H184.334V110.466C184.334 113.05 186.178 115.261 189.194 115.261C190.457 115.261 191.693 114.799 192.846 113.829L193.855 115.035ZM184.534 108.781H193.31C193.164 106.487 191.529 104.992 189.312 104.992C187.041 104.992 185.142 106.596 184.534 108.781Z" fill="#1D1D1B"/>
<path d="M206.047 113.775C207.028 114.609 208.464 115.271 210.135 115.271C211.889 115.271 213.27 114.292 213.27 112.95C213.27 109.85 206.856 111.454 206.856 107.321C206.856 104.656 209.417 103.451 211.489 103.451C213.415 103.451 214.85 104.112 215.831 104.828L214.85 106.088C213.842 105.345 212.897 105.001 211.489 105.001C209.99 105.001 208.5 105.771 208.5 107.321C208.5 108.608 209.963 108.78 211.434 109.297C213.133 109.868 214.914 110.675 214.914 112.941C214.914 115.234 212.761 116.811 210.135 116.811C207.809 116.811 206.047 115.923 205.048 115.035L206.056 113.775H206.047Z" fill="#1D1D1B"/>
<path d="M238.117 107.031C237.254 105.971 235.846 104.992 233.829 104.992C230.867 104.992 228.396 107.484 228.396 110.476C228.396 113.14 230.44 115.271 233.402 115.271C235.128 115.271 236.654 114.554 237.89 113.15L239.071 114.156C237.744 115.823 235.673 116.821 233.429 116.821C229.895 116.821 226.761 114.328 226.761 110.476C226.761 106.623 229.986 103.442 233.838 103.442C236.373 103.442 238.126 104.62 239.271 105.998L238.117 107.031Z" fill="#1D1D1B"/>
<path d="M261.502 115.035C260.348 116.123 258.622 116.811 256.895 116.811C255.46 116.811 253.988 116.494 252.753 115.552C251.317 114.4 250.336 112.597 250.336 110.476C250.336 106.569 253.271 103.442 256.95 103.442C260.402 103.442 262.619 106.052 262.619 109.524C262.619 109.787 262.619 110.013 262.592 110.267H251.98V110.466C251.98 113.05 253.825 115.261 256.841 115.261C258.104 115.261 259.339 114.799 260.493 113.829L261.502 115.035ZM252.18 108.781H260.956C260.811 106.487 259.176 104.992 256.959 104.992C254.688 104.992 252.789 106.596 252.189 108.781H252.18Z" fill="#1D1D1B"/>
<path d="M273.839 116.521L276.083 103.723H277.718L277.455 105.218C278.545 104.131 280.126 103.442 281.797 103.442C285.05 103.442 286.976 105.798 286.976 108.49C286.976 109.062 286.921 109.669 286.803 110.331L285.713 116.53H284.078L285.195 110.185C285.277 109.669 285.34 109.125 285.34 108.49C285.34 106.569 284.05 104.992 281.634 104.992C279.853 104.992 278.1 106.17 277 107.72L275.474 116.53H273.839V116.521Z" fill="#1D1D1B"/>
<path d="M312.641 96.154H314.276L310.678 116.53H309.043L309.307 115.207C308.216 116.213 306.772 116.811 305.137 116.811C301.712 116.811 298.922 114.11 298.922 110.466C298.922 106.388 302.002 103.433 305.882 103.433C307.78 103.433 309.561 104.212 310.942 105.726L312.641 96.1449V96.154ZM310.624 107.575C309.588 106.079 307.744 104.992 305.882 104.992C302.92 104.992 300.558 107.403 300.558 110.476C300.558 113.004 302.457 115.271 305.191 115.271C306.945 115.271 308.498 114.328 309.679 112.914L310.624 107.575Z" fill="#1D1D1B"/>
<path d="M331.474 103.442C335.244 103.442 337.942 106.224 337.942 109.787C337.942 113.721 334.69 116.821 330.747 116.821C326.977 116.821 324.279 114.038 324.279 110.476C324.279 106.542 327.531 103.442 331.474 103.442ZM331.474 104.992C328.458 104.992 325.923 107.43 325.923 110.476C325.923 113.204 327.94 115.271 330.756 115.271C333.772 115.271 336.307 112.805 336.307 109.787C336.307 107.058 334.29 104.992 331.474 104.992Z" fill="#1D1D1B"/>
<path d="M365.216 112.968C365.733 114.228 366.769 115.18 368.522 115.18C369.731 115.18 370.712 114.69 371.402 113.947C372.011 113.285 372.438 112.397 372.692 110.874L375.227 96.444H376.926L374.364 110.911C374.019 112.832 373.528 114.21 372.52 115.216C371.539 116.222 370.076 116.821 368.522 116.821C366.079 116.821 364.38 115.561 363.662 113.603L365.216 112.968Z" fill="#1D1D1B"/>
<path d="M400.565 103.723L398.321 116.521H396.686L396.94 115.026C395.877 116.086 394.405 116.802 392.77 116.802C390.036 116.802 387.592 114.79 387.592 111.754C387.592 111.183 387.646 110.575 387.764 109.914L388.855 103.714H390.49L389.372 110.059C389.282 110.575 389.227 111.119 389.227 111.754C389.227 113.675 390.49 115.252 392.852 115.252C394.605 115.252 396.304 114.074 397.394 112.524L398.921 103.714H400.556L400.565 103.723Z" fill="#1D1D1B"/>
<path d="M411.921 116.521L414.165 103.723H415.801L415.537 105.218C416.627 104.131 418.208 103.442 419.88 103.442C423.132 103.442 425.058 105.798 425.058 108.49C425.058 109.062 425.004 109.669 424.885 110.331L423.795 116.53H422.16L423.277 110.185C423.368 109.669 423.423 109.125 423.423 108.49C423.423 106.569 422.133 104.992 419.716 104.992C417.935 104.992 416.182 106.17 415.083 107.72L413.557 116.53H411.921V116.521Z" fill="#1D1D1B"/>
<path d="M444.936 116.521C444.445 116.694 443.782 116.811 443.21 116.811C440.675 116.811 438.749 115.488 438.749 112.995C438.749 112.533 438.894 111.645 438.976 111.155L440.012 105.273H436.269L436.56 103.723H440.266L440.875 100.16H442.51L441.902 103.723H446.535L446.244 105.273H441.638L440.548 111.5C440.493 111.754 440.375 112.678 440.375 112.905C440.375 114.6 441.756 115.262 443.219 115.262C443.682 115.262 444.109 115.171 444.509 115.062L444.909 116.521H444.936Z" fill="#1D1D1B"/>
<path d="M463.524 103.442C467.294 103.442 469.992 106.224 469.992 109.787C469.992 113.721 466.74 116.821 462.797 116.821C459.027 116.821 456.329 114.038 456.329 110.476C456.329 106.542 459.581 103.442 463.524 103.442ZM463.524 104.992C460.508 104.992 457.973 107.43 457.973 110.476C457.973 113.204 459.99 115.271 462.806 115.271C465.822 115.271 468.357 112.805 468.357 109.787C468.357 107.058 466.34 104.992 463.524 104.992Z" fill="#1D1D1B"/>
<path d="M481.321 113.775C482.302 114.609 483.738 115.271 485.41 115.271C487.163 115.271 488.544 114.292 488.544 112.95C488.544 109.85 482.13 111.454 482.13 107.321C482.13 104.656 484.692 103.451 486.763 103.451C488.689 103.451 490.125 104.112 491.106 104.828L490.125 106.088C489.116 105.345 488.171 105.001 486.763 105.001C485.264 105.001 483.774 105.771 483.774 107.321C483.774 108.608 485.237 108.78 486.709 109.297C488.408 109.868 490.188 110.675 490.188 112.941C490.188 115.234 488.035 116.811 485.41 116.811C483.084 116.811 481.321 115.923 480.322 115.035L481.33 113.775H481.321Z" fill="#1D1D1B"/>
<path d="M130.278 65C130.278 67.6558 130.115 70.2845 129.815 72.8587C129.47 75.6324 128.97 78.3517 128.298 80.9985C128.28 81.1163 128.243 81.2251 128.216 81.3338V81.361C120.939 109.333 95.4648 130 65.1574 130C29.1627 130 0 100.913 0 65C0 62.9062 0.0999346 60.8395 0.299804 58.8C3.42503 25.806 31.2523 0.0181286 65.1392 0H65.1483C66.2839 0 67.4104 0.0362572 68.5188 0.0906429C68.8731 0.117836 69.2183 0.1269 69.5817 0.163157C71.3715 0.290057 73.1521 0.471343 74.8874 0.734207C75.169 0.779529 75.4415 0.806722 75.7232 0.861107C76.2138 0.933622 76.7043 1.0152 77.1858 1.10584C84.4175 2.45642 91.2039 5.00349 97.3726 8.5023C97.4998 8.56575 97.6361 8.6292 97.7542 8.71984C98.3811 9.07335 99.017 9.45405 99.6257 9.84382C100.08 10.1339 100.534 10.4149 100.979 10.714C101.161 10.8318 101.343 10.9497 101.524 11.0766C102.297 11.5932 103.051 12.1371 103.814 12.6809C104.741 13.3608 105.649 14.0768 106.53 14.802C107.82 15.8444 109.038 16.9502 110.237 18.0923C113.344 21.0473 116.151 24.3195 118.595 27.8364C119.031 28.4437 119.44 29.0692 119.849 29.6855C119.949 29.8396 120.04 29.9847 120.149 30.1297C121.357 32.0241 122.474 33.9729 123.456 36.0033C123.583 36.2481 123.71 36.4928 123.828 36.7285C124.264 37.6349 124.682 38.5413 125.064 39.4568C125.254 39.8738 125.427 40.2908 125.591 40.7258C125.718 41.0431 125.854 41.3785 125.972 41.6867C126.454 42.9375 126.899 44.1884 127.298 45.4574C128.18 48.2311 128.879 51.0863 129.37 54.005C129.697 55.9357 129.942 57.9027 130.088 59.8877C130.224 61.5646 130.297 63.2597 130.297 64.9728L130.278 65Z" fill="#1D1D1B"/>
<path d="M117.605 60.2322C117.605 60.1597 117.596 60.0872 117.587 60.0147C115.17 34.5531 94.4291 14.1131 68.3916 12.5269C67.3923 12.4544 66.3203 12.4272 65.121 12.4272C41.1095 12.4272 20.1323 28.6069 14.1181 51.7753L14.0908 51.9112C14.0726 51.9747 14.0636 52.0291 14.0545 52.0562C13.7092 53.4068 13.4185 54.8209 13.1823 56.2802C13.1823 56.2802 13.1823 56.3165 13.1823 56.3437C13.0551 57.1051 12.937 57.8665 12.8462 58.655C12.7917 59.1355 12.7371 59.6068 12.6917 60.0872C12.5373 61.7369 12.4646 63.3866 12.4646 65.0091C12.4646 65.9881 12.5009 66.967 12.5554 67.9369C12.6645 69.931 12.8825 71.9252 13.2096 73.883C13.6093 76.2579 14.1726 78.5874 14.8812 80.7991C14.972 81.071 15.0629 81.343 15.1537 81.6058C15.4081 82.3763 15.6716 83.1286 15.9532 83.8538C16.0077 83.9988 16.0713 84.1438 16.1258 84.2888C16.1713 84.3976 16.2076 84.5064 16.253 84.6152C16.3711 84.9324 16.4983 85.2406 16.6255 85.5216C16.6437 85.5578 16.6619 85.6122 16.68 85.6485C17.0071 86.4099 17.3432 87.1532 17.6703 87.8239C17.7248 87.9508 17.7884 88.0687 17.852 88.1865C17.8974 88.2681 17.9247 88.3496 17.9701 88.4312C18.5424 89.6186 19.2056 90.8333 19.9869 92.1113C20.1959 92.4648 20.4139 92.8183 20.6502 93.1809L20.8954 93.5707C21.2316 94.0692 21.5586 94.5678 21.913 95.0572C23.5573 97.4321 25.4107 99.6437 27.4003 101.674C27.8182 102.1 28.2452 102.535 28.6722 102.943C29.4171 103.659 30.0622 104.248 30.6799 104.774C31.0161 105.064 31.3432 105.345 31.6702 105.599C31.9337 105.817 32.2153 106.043 32.4879 106.261C32.9421 106.623 33.4054 106.977 33.8869 107.33L34.0505 107.439C34.6047 107.838 35.1588 108.237 35.7312 108.626L36.1764 108.917L36.2127 108.944C36.567 109.179 36.9122 109.406 37.2484 109.605C37.6027 109.841 37.9479 110.04 38.2841 110.24C38.4294 110.331 38.5839 110.412 38.7111 110.494C38.7656 110.53 38.8292 110.575 38.8928 110.602C38.9745 110.648 39.0472 110.684 39.0926 110.702C39.2016 110.766 39.3107 110.82 39.4197 110.874C41.5001 112.035 43.6442 113.05 45.8428 113.92C48.9407 115.144 52.1386 116.077 55.4183 116.685C55.6909 116.739 55.9634 116.775 56.2359 116.821L56.6084 116.884C56.8356 116.929 57.0718 116.966 57.2898 116.993C57.6895 117.056 58.0893 117.093 58.4799 117.147C58.9433 117.201 59.4157 117.265 59.8699 117.31C60.4514 117.364 61.0237 117.428 61.587 117.464L62.4319 117.528C63.2768 117.564 64.1762 117.591 65.1574 117.591C92.494 117.591 115.043 97.1329 117.614 70.0307C117.723 68.9702 117.777 67.8644 117.814 66.7495C117.832 66.1693 117.85 65.5983 117.85 65.0182C117.85 63.4138 117.777 61.8185 117.632 60.2504L117.605 60.2322Z" fill="#E20613"/>
<path d="M62.6953 20.6122L13.9363 69.2784L20.5684 75.8862L20.6138 75.8409C20.8318 76.1128 21.0771 76.3848 21.3315 76.6386L22.0583 77.3728C24.2114 79.5119 27.0641 80.5271 29.8805 80.4093H29.9622C32.4697 80.2915 34.9408 79.2763 36.8577 77.3728L86.1891 28.1446C86.2254 28.4347 87.9334 30.6554 87.8879 30.9817C87.7517 32.2779 87.0249 33.7373 85.7984 34.9972L49.5494 71.1728L54.4734 75.8772L54.5189 75.8318C54.7369 76.1038 54.9822 76.3757 55.2366 76.6295L55.9725 77.3637C58.1256 79.5029 60.9692 80.5181 63.7855 80.4002H63.8673C66.3748 80.2824 68.8459 79.2672 70.7537 77.3637L104.259 43.9437C104.295 44.2337 105.676 46.0919 105.64 46.4092C105.495 47.7235 104.741 49.2191 103.478 50.479L83.1365 70.8012L88.3785 75.8772L88.4149 75.8318C88.6329 76.1038 88.8782 76.3757 89.1326 76.6295L89.8685 77.3637C92.0125 79.5029 94.8652 80.5181 97.6815 80.4002H97.7633C100.271 80.2824 102.742 79.2672 104.65 77.3637L114.034 68.0003C114.034 68.0003 114.044 67.9822 114.044 67.964C115.424 66.5863 116.851 64.9638 117.787 63.1781C117.75 62.1901 117.696 61.2021 117.614 60.2231C117.614 60.1506 117.605 60.0781 117.596 60.0056C115.179 34.544 94.4382 14.104 68.4007 12.5178C67.4013 12.4453 66.3293 12.4181 65.1301 12.4181C64.8212 12.4181 64.5214 12.4362 64.2125 12.4362C64.2761 12.4906 64.3488 12.5269 64.4124 12.5903C66.1385 14.3125 65.3754 17.8839 62.6953 20.6031V20.6122Z" fill="white"/>
</g>
<defs>
<clipPath id="clip0_3_2">
<rect width="500" height="130" fill="white"/>
</clipPath>
</defs>
</svg>
