<svg width="190" height="190" viewBox="0 0 190 190" fill="none" xmlns="http://www.w3.org/2000/svg">
<g clip-path="url(#clip0_9_5)">
<path d="M190 95C190 98.88 189.76 102.72 189.32 106.49C188.82 110.54 188.08 114.52 187.1 118.38C187.08 118.55 187.02 118.72 186.98 118.87V118.91C176.37 159.8 139.22 190 95.01 190C42.54 190 0 147.48 0 95C0 91.94 0.14 88.92 0.43 85.94C4.99 37.72 45.58 0.02 95 0H95.01C96.66 0 98.31 0.05 99.93 0.13C100.44 0.16 100.96 0.19 101.47 0.24C104.08 0.42 106.67 0.69 109.21 1.08C109.62 1.14 110.01 1.19 110.43 1.27C111.15 1.38 111.86 1.5 112.57 1.63C123.11 3.6 133.01 7.33 142.01 12.44C142.19 12.54 142.39 12.63 142.56 12.75C143.47 13.26 144.4 13.83 145.29 14.39C145.95 14.81 146.61 15.23 147.26 15.66C147.52 15.83 147.79 16.01 148.05 16.19C149.18 16.95 150.28 17.74 151.39 18.54C152.74 19.54 154.07 20.58 155.36 21.64C157.24 23.16 159.02 24.78 160.77 26.45C165.3 30.77 169.39 35.55 172.97 40.7C173.6 41.59 174.21 42.5 174.8 43.41C174.94 43.64 175.07 43.84 175.23 44.06C176.99 46.83 178.62 49.68 180.05 52.64C180.23 53 180.42 53.35 180.59 53.7C181.23 55.03 181.84 56.35 182.39 57.69C182.67 58.3 182.92 58.91 183.16 59.55C183.35 60.02 183.54 60.5 183.71 60.95C184.42 62.77 185.07 64.61 185.64 66.47C186.92 70.52 187.94 74.7 188.66 78.96C189.14 81.78 189.49 84.65 189.7 87.56C189.9 90.02 190 92.49 190 94.99V95Z" fill="#1D1D1B"/>
<path d="M171.52 88.04C171.51 87.94 171.5 87.83 171.5 87.73C167.97 50.51 137.73 20.64 99.7599 18.32C98.2999 18.22 96.7399 18.17 94.9899 18.17C59.9699 18.17 29.3799 41.82 20.5999 75.68L20.5499 75.88C20.5199 75.97 20.5099 76.06 20.4999 76.09C19.9999 78.06 19.5699 80.13 19.2199 82.26C19.2199 82.26 19.2199 82.32 19.2099 82.35C19.0299 83.46 18.8599 84.58 18.7199 85.72C18.6399 86.42 18.5599 87.11 18.4999 87.81C18.2799 90.22 18.1599 92.63 18.1599 95C18.1599 96.43 18.2099 97.86 18.2899 99.28C18.4499 102.2 18.7599 105.11 19.2499 107.97C19.8399 111.44 20.6599 114.84 21.6899 118.08C21.8199 118.48 21.9499 118.87 22.0899 119.26C22.4599 120.39 22.8499 121.48 23.2599 122.55C23.3399 122.76 23.4299 122.97 23.5199 123.19C23.5799 123.35 23.6399 123.51 23.6999 123.66C23.8699 124.12 24.0499 124.57 24.2399 124.99C24.2699 125.05 24.2899 125.12 24.3199 125.18C24.7999 126.3 25.2899 127.38 25.7599 128.36C25.8399 128.55 25.9399 128.72 26.0299 128.89C26.0899 129.01 26.1399 129.13 26.2099 129.24C27.0399 130.97 28.0199 132.75 29.1499 134.62C29.4599 135.13 29.7799 135.65 30.1099 136.18L30.4699 136.75C30.9599 137.48 31.4399 138.21 31.9499 138.93C34.3499 142.4 37.0499 145.63 39.9599 148.6C40.5699 149.23 41.1899 149.85 41.8099 150.45C42.8999 151.5 43.8399 152.36 44.7399 153.13C45.2299 153.55 45.7099 153.96 46.1799 154.34C46.5699 154.66 46.9699 154.98 47.3699 155.3C48.0299 155.83 48.7099 156.35 49.3999 156.86L49.6299 157.02C50.4399 157.6 51.2399 158.18 52.0799 158.75L52.7199 159.17L52.7799 159.21C53.2899 159.55 53.8099 159.89 54.2899 160.18C54.7999 160.52 55.3099 160.82 55.7899 161.11C56.0099 161.24 56.2299 161.36 56.4199 161.48C56.5099 161.54 56.5999 161.59 56.6799 161.64C56.7999 161.7 56.8999 161.76 56.9699 161.79C57.1299 161.88 57.2799 161.96 57.4399 162.04C60.4699 163.74 63.5999 165.22 66.7999 166.49C71.3199 168.27 75.9799 169.64 80.7599 170.54C81.1599 170.62 81.5499 170.68 81.9499 170.74L82.4899 170.83C82.8199 170.89 83.1599 170.95 83.4799 170.99C84.0699 171.08 84.6399 171.14 85.2199 171.22C85.8999 171.3 86.5799 171.39 87.2399 171.46C88.0799 171.54 88.9299 171.63 89.7399 171.68L90.9799 171.77C92.2199 171.83 93.5299 171.86 94.9599 171.86H94.9699C134.84 171.85 167.72 141.96 171.47 102.35C171.62 100.8 171.7 99.18 171.76 97.55C171.79 96.71 171.82 95.87 171.82 95.02C171.82 92.67 171.71 90.35 171.5 88.05L171.52 88.04Z" fill="#E20613"/>
<path d="M91.4398 30.13L20.3198 101.25L29.9898 110.91L30.0598 110.85C30.3798 111.25 30.7298 111.64 31.1098 112.02L32.1698 113.1C35.3098 116.23 39.4698 117.71 43.5698 117.54H43.6798C47.3298 117.37 50.9398 115.88 53.7398 113.1L125.69 41.14C125.74 41.57 128.23 44.81 128.16 45.28C127.96 47.17 126.9 49.31 125.11 51.15L72.2398 104.02L79.4298 110.9L79.4998 110.84C79.8198 111.24 80.1698 111.63 80.5498 112.01L81.6198 113.09C84.7498 116.22 88.9098 117.7 93.0098 117.53H93.1298C96.7898 117.36 100.39 115.87 103.18 113.09L152.04 64.24C152.09 64.67 154.11 67.38 154.05 67.85C153.83 69.77 152.73 71.95 150.9 73.79L121.23 103.49L128.87 110.9L128.93 110.84C129.25 111.24 129.6 111.63 129.98 112.01L131.06 113.09C134.19 116.22 138.35 117.7 142.45 117.53H142.57C146.23 117.36 149.84 115.87 152.62 113.09L166.31 99.4C166.31 99.4 166.32 99.37 166.32 99.35C168.34 97.33 170.41 94.97 171.77 92.35C171.72 90.9 171.64 89.46 171.51 88.03C171.5 87.93 171.49 87.82 171.49 87.72C167.96 50.5 137.72 20.63 99.7498 18.31C98.2898 18.21 96.7298 18.16 94.9798 18.16C94.5298 18.16 94.0898 18.18 93.6498 18.19C93.7498 18.27 93.8398 18.33 93.9398 18.42C96.4498 20.94 95.3398 26.15 91.4398 30.13Z" fill="white"/>
</g>
<defs>
<clipPath id="clip0_9_5">
<rect width="190" height="190" fill="white"/>
</clipPath>
</defs>
</svg>
